<svg width="20" height="20" viewBox="0 0 20 20" fill="none" xmlns="http://www.w3.org/2000/svg">
<path d="M10.1359 0.249929C4.65243 0.175867 0.175867 4.65243 0.249929 10.1359C0.323054 15.3948 4.60509 19.6768 9.86399 19.7499C15.3484 19.8249 19.824 15.3484 19.749 9.86493C19.6768 4.60509 15.3948 0.323054 10.1359 0.249929ZM9.34884 9.27196L11.7652 6.50634C11.8962 6.35653 12.0812 6.26486 12.2797 6.2515C12.4782 6.23814 12.6739 6.30418 12.8237 6.43509C12.9735 6.56599 13.0652 6.75105 13.0785 6.94955C13.0919 7.14804 13.0258 7.34372 12.8949 7.49352L10.4785 10.2591C10.4137 10.3333 10.3349 10.394 10.2466 10.4377C10.1584 10.4815 10.0623 10.5074 9.96406 10.514C9.86578 10.5206 9.76715 10.5078 9.67381 10.4763C9.58048 10.4448 9.49426 10.3952 9.42009 10.3304C9.34591 10.2656 9.28523 10.1868 9.2415 10.0985C9.19778 10.0102 9.17187 9.91422 9.16525 9.81594C9.15864 9.71765 9.17144 9.61903 9.20294 9.52569C9.23444 9.43235 9.28402 9.34614 9.34884 9.27196ZM7.52727 13.5306C7.38664 13.6711 7.19594 13.7501 6.99712 13.7501C6.79829 13.7501 6.6076 13.6711 6.46696 13.5306L4.2193 11.2806C4.14968 11.2109 4.09447 11.1282 4.05681 11.0371C4.01916 10.9461 3.9998 10.8486 3.99984 10.7501C3.99989 10.6516 4.01933 10.554 4.05707 10.463C4.0948 10.3721 4.15009 10.2894 4.21977 10.2198C4.28946 10.1502 4.37217 10.0949 4.46319 10.0573C4.55421 10.0196 4.65176 10.0003 4.75026 10.0003C4.84876 10.0004 4.94629 10.0198 5.03728 10.0575C5.12827 10.0953 5.21093 10.1506 5.28055 10.2202L7.53055 12.4702C7.67067 12.6113 7.74903 12.8022 7.74841 13.0011C7.7478 13.1999 7.66826 13.3904 7.52727 13.5306ZM15.8148 7.49352L10.5704 13.4935C10.5028 13.5709 10.4201 13.6337 10.3273 13.6778C10.2345 13.7219 10.1336 13.7464 10.0309 13.7499H10.0056C9.907 13.7499 9.80941 13.7305 9.71836 13.6928C9.62732 13.6551 9.54459 13.5998 9.47493 13.5301L7.22774 11.2801C7.08714 11.1394 7.00819 10.9485 7.00828 10.7496C7.00837 10.5507 7.08748 10.3599 7.22821 10.2193C7.36894 10.0787 7.55976 9.99976 7.7587 9.99984C7.95763 9.99993 8.14839 10.079 8.28899 10.2198L9.68587 11.6181C9.72218 11.6544 9.76557 11.6829 9.81334 11.7017C9.86111 11.7206 9.91225 11.7294 9.96358 11.7277C10.0149 11.726 10.0654 11.7138 10.1118 11.6918C10.1582 11.6697 10.1996 11.6384 10.2334 11.5998L14.6865 6.50634C14.8174 6.35653 15.0025 6.26486 15.201 6.2515C15.3994 6.23814 15.5951 6.30418 15.7449 6.43509C15.8947 6.56599 15.9864 6.75105 15.9998 6.94955C16.0131 7.14804 15.9471 7.34372 15.8162 7.49352H15.8148Z" fill="#BDBDBD"/>
</svg>
