<svg xmlns="http://www.w3.org/2000/svg" version="1.1" xmlns:xlink="http://www.w3.org/1999/xlink" xmlns:svgjs="http://svgjs.com/svgjs" width="512" height="512" x="0" y="0" viewBox="0 0 100 100" style="enable-background:new 0 0 512 512" xml:space="preserve" class=""><g><path xmlns="http://www.w3.org/2000/svg" d="m83.333 10h-46.666c-3.666 0-6.667 3.001-6.667 6.667v46.666c0 3.666 3.001 6.667 6.667 6.667h46.666c3.666 0 6.667-3.001 6.667-6.667v-46.666c0-3.666-3.001-6.667-6.667-6.667zm-11.673 30 .003-8.132-24.801 24.799-3.529-3.542 24.789-24.785-8.125-.007v-5h13.333c1.843.004 3.333 1.494 3.33 3.334l.007 13.336z" fill="#000000" data-original="#000000" class=""></path><path xmlns="http://www.w3.org/2000/svg" d="m43.333 76.667v6.666h-26.666v-26.666h6.666v-6.667h-10c-1.832 0-3.333 1.501-3.333 3.333v33.334c0 1.829 1.501 3.333 3.333 3.333h33.334c1.832 0 3.333-1.504 3.333-3.333v-10z" fill="#000000" data-original="#000000" class=""></path></g></svg>