<svg width="37" height="48" viewBox="0 0 37 48" fill="none" xmlns="http://www.w3.org/2000/svg">
<path fill-rule="evenodd" clip-rule="evenodd" d="M18.0001 7.25998L15.8491 5.04898C12.4591 1.56598 6.12008 2.71798 3.81908 7.20898C2.76908 9.26398 2.46608 12.33 4.52708 16.395C6.48008 20.259 10.5601 24.96 18.0001 30.126C25.4371 24.957 29.5171 20.256 31.4731 16.395C33.5341 12.33 33.2341 9.26398 32.1811 7.21198C29.8801 2.71798 23.5411 1.56598 20.1511 5.04898L18.0001 7.25998ZM16.5301 32.76C-15.8099 10.44 7.53008 -6.70502 17.6071 2.57098C17.7421 2.69398 17.8741 2.82298 18.0031 2.95798C18.1321 2.82298 18.2641 2.69398 18.3991 2.57098C28.4791 -6.70502 51.8101 10.443 19.4701 32.76L20.1751 34.164C20.2192 34.2522 20.2455 34.3483 20.2525 34.4467C20.2595 34.5451 20.247 34.644 20.2158 34.7376C20.1846 34.8312 20.1353 34.9177 20.0707 34.9922C20.006 35.0668 19.9273 35.1279 19.8391 35.172C19.7508 35.2161 19.6548 35.2424 19.5563 35.2494C19.4579 35.2564 19.3591 35.2439 19.2655 35.2127C19.1719 35.1815 19.0853 35.1322 19.0108 35.0676C18.9363 35.0029 18.8752 34.9242 18.8311 34.836L18.8071 34.785C18.8311 35.115 18.8671 35.391 18.9181 35.655C19.0801 36.465 19.4011 37.119 20.1751 38.664C21.0391 40.398 20.8801 42.114 20.4031 43.551C19.9321 44.958 19.1371 46.152 18.6391 46.896L18.6271 46.917C18.5723 46.9989 18.5019 47.0693 18.42 47.124C18.338 47.1788 18.2461 47.2169 18.1494 47.2361C18.0528 47.2553 17.9533 47.2553 17.8566 47.2361C17.7599 47.2168 17.668 47.1787 17.5861 47.124C17.5041 47.0692 17.4338 46.9989 17.379 46.9169C17.3243 46.8349 17.2862 46.743 17.267 46.6463C17.2478 46.5497 17.2478 46.4502 17.267 46.3535C17.2862 46.2569 17.3243 46.1649 17.3791 46.083C17.8831 45.327 18.5791 44.283 18.9781 43.074C19.3771 41.886 19.4671 40.602 18.8311 39.336L18.7921 39.252C18.0721 37.812 17.6521 36.978 17.4481 35.946C17.364 35.5003 17.3119 35.0491 17.2921 34.596L17.1721 34.836C17.1284 34.9248 17.0676 35.0041 16.9932 35.0693C16.9187 35.1346 16.8321 35.1844 16.7383 35.216C16.6445 35.2476 16.5453 35.2603 16.4466 35.2533C16.3478 35.2464 16.2515 35.22 16.163 35.1757C16.0745 35.1313 15.9956 35.0699 15.931 34.995C15.8664 34.92 15.8172 34.833 15.7863 34.7389C15.7555 34.6449 15.7436 34.5457 15.7512 34.447C15.7589 34.3483 15.786 34.2521 15.8311 34.164L16.5361 32.76H16.5301ZM12.0391 6.17998C10.0921 5.63998 7.59008 6.42898 6.48908 8.57398C6.09608 9.34798 5.75408 10.641 6.24908 12.579C6.43808 13.311 7.49108 13.173 7.71008 12.45C8.34008 10.359 9.59107 8.10898 11.7871 7.37398C12.4381 7.15498 12.6991 6.36298 12.0391 6.17998Z" fill="#2E2E48"/>
</svg>
