<svg xmlns="http://www.w3.org/2000/svg" version="1.1" xmlns:xlink="http://www.w3.org/1999/xlink" xmlns:svgjs="http://svgjs.com/svgjs" width="512" height="512" x="0" y="0" viewBox="0 0 96 96" style="enable-background:new 0 0 512 512" xml:space="preserve" class=""><g><path xmlns="http://www.w3.org/2000/svg" id="Tag_1_" d="m82 22.681v-7.681c0-3.309-2.691-6-6-6h-29.172c-1.068 0-2.072.416-2.828 1.172l-38 38c-1.56 1.56-1.56 4.097 0 5.656l31.172 31.172c.779.78 1.804 1.17 2.828 1.17s2.049-.39 2.828-1.17l19.381-19.381c3.161 3.97 7.283 6.381 11.791 6.381 9.925 0 18-11.663 18-26 0-9.997-3.894-18.982-10-23.319zm-8 45.319c-7.72 0-14-9.869-14-22 0-6.33 1.769-12.373 4.853-16.578.652-.891.46-2.143-.431-2.796-.892-.652-2.142-.459-2.796.431-1.51 2.059-2.728 4.493-3.654 7.142-1.808-1.465-2.972-3.691-2.972-6.199 0-4.418 3.582-8 8-8s8 3.582 8 8c0 3.331-2.036 6.184-4.931 7.388-1.327 3.082-2.069 6.762-2.069 10.612 0 5.88 1.622 10.764 3.871 13.957l12.957-12.957c.756-.756 1.172-1.76 1.172-2.828v-16.147c3.682 4.085 6 10.787 6 17.975 0 12.131-6.28 22-14 22z" fill="#000000" data-original="#000000" class=""></path></g></svg>