<svg width="37" height="38" viewBox="0 0 37 38" fill="none" xmlns="http://www.w3.org/2000/svg">
<path d="M33 5.50001L32.55 5.05001C30 2.20001 26.25 1.30001 26.25 1.30001C21.75 -0.0499896 14.7 2.95001 8.403 9.09701C3.153 14.05 0 20.05 0 24.55C0 25.1545 0.153 25.7515 0.153 26.35C0.4515 29.35 2.403 32.5015 4.0485 34.0015C6.153 36.0985 8.8485 37.1545 11.8485 37.1545C16.7985 37.1545 22.653 34.3 28.0485 29.203C36.4515 20.95 38.55 11.2 33 5.50001ZM9 27.55C9 25.597 11.097 21.55 15.597 17.05C19.9515 12.7 24.4515 11.5 26.5485 11.05C25.5 13.903 23.25 17.347 19.9515 20.653C16.7985 23.653 13.2015 26.0485 10.0485 27.25C9.75 27.403 9.2985 27.403 9 27.55ZM10.5 11.2C15.45 6.25001 20.7 3.84701 24 3.84701C25.05 3.84701 25.95 4.15301 26.55 4.75001C27.153 5.34701 27.45 6.55001 27.3 7.90301C25.5 8.04851 19.347 9.09701 13.5 14.9515C9.75 18.7015 5.847 24.097 6.153 27.847C5.25 27.847 4.347 27.5485 3.903 27.097C3.53222 26.7268 3.27243 26.2602 3.153 25.75C3.153 25.75 3 25 3 24.55C3.153 20.8 6 15.55 10.5 11.2ZM25.95 26.95C18.75 34.153 10.5 36.097 6.153 31.903C5.8148 31.5846 5.51203 31.2305 5.25 30.847C5.55 31 6 31 6.45 31C7.8 31 9.45 30.7 11.097 30.097C14.7015 28.75 18.597 26.2015 22.0485 22.75C27.2985 17.5 30.2985 11.5 30.2985 7.15301L30.4515 7.29851L30.9015 7.59851C35.097 11.9515 33 20.0485 25.9515 26.9515L25.95 26.95Z" fill="#2E2E48"/>
</svg>
