<svg xmlns="http://www.w3.org/2000/svg" version="1.1" xmlns:xlink="http://www.w3.org/1999/xlink" xmlns:svgjs="http://svgjs.com/svgjs" width="512" height="512" x="0" y="0" viewBox="0 0 64 64" style="enable-background:new 0 0 512 512" xml:space="preserve" class=""><g><path xmlns="http://www.w3.org/2000/svg" d="M62,51H61V43.405a10.386,10.386,0,0,0-6.05-9.447L54.762,33H57a3,3,0,0,0,3-3V26a3,3,0,0,0-3-3H52.792l-.7-3.546A8.02,8.02,0,0,0,44.244,13H42.9a5.4,5.4,0,0,0,.1-1,5,5,0,0,0-2.4-4.354,4.458,4.458,0,0,0-4.441-.1L34.142,8.633a3.941,3.941,0,0,0-4.284,0L27.841,7.547a4.458,4.458,0,0,0-4.441.1A5,5,0,0,0,21,12a5.4,5.4,0,0,0,.1,1H19.756a8.02,8.02,0,0,0-7.85,6.454L11.208,23H7a3,3,0,0,0-3,3v4a3,3,0,0,0,3,3H9.238l-.188.957A10.387,10.387,0,0,0,3,43.405V51H2a1,1,0,0,0-1,1v4a1,1,0,0,0,1,1H7v3a3,3,0,0,0,3,3h8a3,3,0,0,0,3-3V57H43v3a3,3,0,0,0,3,3h8a3,3,0,0,0,3-3V57h5a1,1,0,0,0,1-1V52A1,1,0,0,0,62,51Zm-3-7.595V51H41V35H50.6A8.4,8.4,0,0,1,59,43.405ZM25,51V34a1,1,0,0,1,1-1h1V51Zm4-18h2V51H29Zm4,0h2V51H33Zm4,0h1a1,1,0,0,1,1,1V51H37Zm20-8a1,1,0,0,1,1,1v4a1,1,0,0,1-1,1H54.368l-1.182-6ZM42.061,15h2.183a6.007,6.007,0,0,1,5.643,4H37.181a10.024,10.024,0,0,1-1.632-2.876l.61.329a4.459,4.459,0,0,0,4.441-.1A4.831,4.831,0,0,0,42.061,15Zm-11.4.753c.1.036.2.068.308.1a13.433,13.433,0,0,1-1.886,6.066l-.466.776-1.751-.875A12.029,12.029,0,0,0,30.663,15.753Zm2.674,0a12.029,12.029,0,0,0,3.795,6.063l-1.751.875-.466-.776a13.433,13.433,0,0,1-1.886-6.066C33.133,15.821,33.236,15.789,33.337,15.753Zm3.771-6.446a2.452,2.452,0,0,1,2.466.055A3.017,3.017,0,0,1,41,12a3.017,3.017,0,0,1-1.426,2.638,2.45,2.45,0,0,1-2.466.055l-1.579-.85a3.841,3.841,0,0,0,0-3.686ZM32,10a2,2,0,1,1-2,2A2,2,0,0,1,32,10Zm-7.574-.638a2.452,2.452,0,0,1,2.466-.055l1.579.85a3.841,3.841,0,0,0,0,3.686l-1.579.85a2.45,2.45,0,0,1-2.466-.055A3.017,3.017,0,0,1,23,12,3.017,3.017,0,0,1,24.426,9.362ZM19.756,15h2.183A4.831,4.831,0,0,0,23.4,16.354a4.459,4.459,0,0,0,4.441.1l.61-.329A10.024,10.024,0,0,1,26.819,19H14.113A6.007,6.007,0,0,1,19.756,15ZM7,31a1,1,0,0,1-1-1V26a1,1,0,0,1,1-1h3.814L9.632,31Zm6.641-10H24.666l-.267.2a1,1,0,0,0,.154,1.7l4,2a1,1,0,0,0,1.3-.38l.943-1.571a15.5,15.5,0,0,0,1.2-2.5,15.5,15.5,0,0,0,1.2,2.5l.943,1.571a1,1,0,0,0,1.3.38l4-2a1,1,0,0,0,.154-1.7l-.268-.2H50.359L52.77,33.241A10.354,10.354,0,0,0,50.6,33H40.816A3,3,0,0,0,38,31H26a3,3,0,0,0-2.816,2H13.405a10.354,10.354,0,0,0-2.175.241ZM5,43.405A8.4,8.4,0,0,1,13.405,35H23V51H5ZM19,60a1,1,0,0,1-1,1H10a1,1,0,0,1-1-1V57H19Zm36,0a1,1,0,0,1-1,1H46a1,1,0,0,1-1-1V57H55Zm6-5H3V53H61Z" fill="#ffffff" data-original="#000000" class=""></path><path xmlns="http://www.w3.org/2000/svg" d="M14,37a6,6,0,1,0,6,6A6.006,6.006,0,0,0,14,37Zm0,10a4,4,0,1,1,4-4A4,4,0,0,1,14,47Z" fill="#ffffff" data-original="#000000" class=""></path><path xmlns="http://www.w3.org/2000/svg" d="M44,43a6,6,0,1,0,6-6A6.006,6.006,0,0,0,44,43Zm10,0a4,4,0,1,1-4-4A4,4,0,0,1,54,43Z" fill="#ffffff" data-original="#000000" class=""></path><path xmlns="http://www.w3.org/2000/svg" d="M61.414,2a3.5,3.5,0,0,0-4.828,0L56,2.586,55.414,2a3.5,3.5,0,0,0-4.828,0A5.376,5.376,0,0,0,49,5.828V6a5.868,5.868,0,0,0,1.707,4.121l4.586,4.586a1,1,0,0,0,1.414,0l4.586-4.586A5.868,5.868,0,0,0,63,6V5.828A5.376,5.376,0,0,0,61.414,2ZM61,6a3.853,3.853,0,0,1-1.121,2.707L56,12.586,52.121,8.707A3.853,3.853,0,0,1,51,6V5.828a3.391,3.391,0,0,1,1-2.414,1.415,1.415,0,0,1,2,0l1.293,1.293a1,1,0,0,0,1.414,0L58,3.414a1.451,1.451,0,0,1,2,0,3.391,3.391,0,0,1,1,2.414Z" fill="#ffffff" data-original="#000000" class=""></path><path xmlns="http://www.w3.org/2000/svg" d="M7.293,14.707a1,1,0,0,0,1.414,0l4.586-4.586A5.868,5.868,0,0,0,15,6V5.828A5.376,5.376,0,0,0,13.414,2,3.5,3.5,0,0,0,8.586,2L8,2.586,7.414,2A3.5,3.5,0,0,0,2.586,2,5.376,5.376,0,0,0,1,5.828V6a5.868,5.868,0,0,0,1.707,4.121ZM3,5.828A3.391,3.391,0,0,1,4,3.414a1.415,1.415,0,0,1,2,0L7.293,4.707a1,1,0,0,0,1.414,0L10,3.414a1.451,1.451,0,0,1,2,0,3.391,3.391,0,0,1,1,2.414V6a3.853,3.853,0,0,1-1.121,2.707L8,12.586,4.121,8.707A3.853,3.853,0,0,1,3,6Z" fill="#ffffff" data-original="#000000" class=""></path></g></svg>