<svg xmlns="http://www.w3.org/2000/svg" version="1.1" xmlns:xlink="http://www.w3.org/1999/xlink" xmlns:svgjs="http://svgjs.com/svgjs" width="512" height="512" x="0" y="0" viewBox="0 0 24 24" style="enable-background:new 0 0 512 512" xml:space="preserve" class=""><g><g xmlns="http://www.w3.org/2000/svg" id="Glyph"><path d="m12 1a11 11 0 1 0 11 11 11 11 0 0 0 -11-11zm-5 8h7.59l-.3-.29a1 1 0 1 1 1.42-1.42l2 2a1 1 0 0 1 .21 1.09 1 1 0 0 1 -.92.62h-10a1 1 0 0 1 0-2zm10 6h-7.59l.3.29a1 1 0 0 1 0 1.42 1 1 0 0 1 -1.42 0l-2-2a1 1 0 0 1 -.21-1.09 1 1 0 0 1 .92-.62h10a1 1 0 0 1 0 2z" fill="#bdbdbd" data-original="#000000" class=""></path></g></g></svg>