<svg xmlns="http://www.w3.org/2000/svg" version="1.1" xmlns:xlink="http://www.w3.org/1999/xlink" xmlns:svgjs="http://svgjs.com/svgjs" width="512" height="512" x="0" y="0" viewBox="0 0 512 512" style="enable-background:new 0 0 512 512" xml:space="preserve" class=""><g>
<g xmlns="http://www.w3.org/2000/svg">
	<g>
		<path d="M82.581,247.742H66.065c-9.107,0-16.516,7.41-16.516,16.516v33.032c0,9.107,7.41,16.516,16.516,16.516h16.516    c9.107,0,16.516-7.41,16.516-16.516v-33.032C99.097,255.151,91.687,247.742,82.581,247.742z M82.581,297.29H66.065v-33.032h16.516    l0.01,33.032C82.591,297.29,82.588,297.29,82.581,297.29z" fill="#ffffff" data-original="#000000" class=""></path>
		<path d="M512,214.71v-16.516c0-9.107-7.41-16.516-16.516-16.516h-3.582l-45.966-76.61V49.548c0-9.107-7.41-16.516-16.516-16.516    h-33.032c-9.107,0-16.516,7.41-16.516,16.516v16.516c0,9.107,7.41,16.516,16.516,16.516h33.032v22.487l-45.966,76.61h-3.582    c-9.107,0-16.516,7.41-16.516,16.516v16.516c0,9.107,7.41,16.516,16.516,16.516v33.032h-16.516    c-9.107,0-16.516,7.41-16.516,16.516v16.516h-16.516v-24.774v-8.258v-82.581c9.107,0,16.516-7.41,16.516-16.516v-16.516    c0-9.107-7.41-16.516-16.516-16.516h-4.55l-61.514-69.205V16.516C264.258,7.41,256.849,0,247.742,0H214.71    c-9.107,0-16.516,7.41-16.516,16.516v16.516c0,9.107,7.41,16.516,16.516,16.516h33.032v13.376l-61.514,69.205h-4.55    c-9.107,0-16.516,7.41-16.516,16.516v16.516c0,9.107,7.41,16.516,16.516,16.516v82.581v8.258v24.774h-16.516v-16.516    c0-9.107-7.41-16.516-16.516-16.516h-16.516v-33.032c9.107,0,16.516-7.41,16.516-16.516v-16.516    c0-9.107-7.41-16.516-16.516-16.516h-3.582l-45.966-76.61V49.548c0-9.107-7.41-16.516-16.516-16.516H33.032    c-9.107,0-16.516,7.41-16.516,16.516v16.516c0,9.107,7.41,16.516,16.516,16.516h33.032v22.487l-45.966,76.61h-3.582    C7.41,181.677,0,189.087,0,198.194v16.516c0,9.107,7.41,16.516,16.516,16.516v160.057l-7.386,3.693    C3.499,397.791,0,403.452,0,409.749v19.671c0,9.107,7.41,16.516,16.516,16.516V512h478.968v-66.065    c9.107,0,16.516-7.41,16.516-16.516v-19.671c0-6.298-3.499-11.958-9.129-14.773l-7.387-3.692V231.226    C504.59,231.226,512,223.816,512,214.71z M396.387,66.065V49.548h33.032v16.516H396.387z M437.677,123.405l34.963,58.272h-69.925    L437.677,123.405z M379.871,198.194h115.613v16.516H379.871V198.194z M214.71,33.032V16.516h33.032v16.516H214.71z M256,78.495    l47.675,53.634h-95.351L256,78.495z M181.677,148.645h148.645l0.01,16.516c0,0-0.003,0-0.01,0H181.677V148.645z M198.194,181.677    h115.613v82.581H297.29v-24.774c0-22.767-18.523-41.29-41.29-41.29s-41.29,18.523-41.29,41.29v24.774h-16.516V181.677z     M231.226,264.258v-24.774c0-13.66,11.114-24.774,24.774-24.774c13.66,0,24.774,11.114,24.774,24.774v24.774    c-9.107,0-16.516,7.41-16.516,16.516v16.516h-16.516v-16.516C247.742,271.668,240.332,264.258,231.226,264.258z M165.161,313.806    h16.516c9.107,0,16.516-7.41,16.516-16.516v-16.516h33.032v16.516c0,9.107,7.41,16.516,16.516,16.516h16.516    c9.107,0,16.516-7.41,16.516-16.516v-16.516h33.032v16.516c0,9.107,7.41,16.516,16.516,16.516h16.516    c9.107,0,16.516-7.41,16.516-16.516v-16.516h16.516v214.71h-16.516v-61.935c0-56.92-46.306-103.226-103.226-103.226    s-103.226,46.306-103.226,103.226v61.935h-24.774v-214.71h16.516v16.516C148.645,306.397,156.055,313.806,165.161,313.806z     M338.455,396.387h-24.648v-30.86C324.208,373.753,332.695,384.295,338.455,396.387z M297.29,396.387h-33.032v-49.443    c11.773,0.554,22.936,3.469,33.032,8.279V396.387z M247.742,396.387H214.71v-36.662c9.878-6.1,21.063-10.268,33.032-11.988    V396.387z M198.194,396.387h-16.39c4.15-8.711,9.716-16.619,16.39-23.439V396.387z M173.419,433.548    c0-7.114,0.88-14.024,2.503-20.645h22.271v16.516h16.516v-16.516h33.032v16.516h16.516v-16.516h33.032v16.516h16.516v-16.516    h30.529c1.624,6.621,2.503,13.531,2.503,20.645v61.935H173.419V433.548z M33.032,66.065V49.548h33.032v16.516H33.032z     M74.323,123.405l34.963,58.272H39.36L74.323,123.405z M16.516,198.194h115.613l0.01,16.516c0,0-0.003,0-0.01,0H16.516V198.194z     M33.032,231.226h82.581v33.032v8.258v69.219l-82.581,41.29V231.226z M16.516,409.749l99.097-49.548v69.219h-13.096    c-5.325,0-10.332-2.074-14.097-5.84l-5.839-5.838l-5.839,5.838c-3.766,3.766-8.771,5.839-14.097,5.839h-1.417    c-5.325,0-10.332-2.074-14.097-5.84l-5.841-5.838l-5.839,5.838c-3.766,3.766-8.771,5.839-14.097,5.839h-4.838V409.749z     M33.032,444.008c2.904-0.98,5.681-2.303,8.258-3.994c5.875,3.853,12.747,5.921,19.936,5.921h1.417    c7.19,0,14.061-2.068,19.936-5.92c5.876,3.852,12.748,5.92,19.937,5.92h13.096v49.548H33.032V444.008z M396.387,495.484v-49.548    h13.096c7.19,0,14.061-2.068,19.936-5.92c5.875,3.852,12.747,5.92,19.936,5.92h1.417c7.19,0,14.061-2.068,19.936-5.92    c2.578,1.69,5.354,3.014,8.258,3.994v51.475H396.387z M495.484,429.419h-4.838c-5.325,0-10.332-2.074-14.097-5.84l-5.839-5.838    l-5.839,5.838c-3.765,3.766-8.771,5.84-14.097,5.84h-1.417c-5.325,0-10.332-2.074-14.096-5.84l-5.841-5.838l-5.84,5.838    c-3.765,3.766-8.771,5.84-14.096,5.84h-13.096V360.2l99.097,49.548V429.419z M478.968,383.026l-82.581-41.29v-69.219v-8.258    v-33.032h82.581V383.026z" fill="#ffffff" data-original="#000000" class=""></path>
		<path d="M429.419,313.806h16.516c9.107,0,16.516-7.41,16.516-16.516v-33.032c0-9.107-7.41-16.516-16.516-16.516h-16.516    c-9.107,0-16.516,7.41-16.516,16.516v33.032C412.903,306.397,420.313,313.806,429.419,313.806z M429.419,264.258h16.516v33.032    h-16.516V264.258z" fill="#ffffff" data-original="#000000" class=""></path>
	</g>
</g>















</g></svg>